<?xml version="1.0" encoding="iso-8859-1"?>
<!-- Generator: Adobe Illustrator 19.0.0, SVG Export Plug-In . SVG Version: 6.00 Build 0)  -->
<svg version="1.1" id="Capa_1" xmlns="http://www.w3.org/2000/svg" xmlns:xlink="http://www.w3.org/1999/xlink" x="0px" y="0px"
	 viewBox="0 0 480 480" style="enable-background:new 0 0 480 480;" xml:space="preserve">
<g>
	<g>
		<path d="M100,112c-17.673,0-32,14.327-32,32s14.327,32,32,32s32-14.327,32-32S117.673,112,100,112z M100,160
			c-8.837,0-16-7.163-16-16s7.163-16,16-16s16,7.163,16,16S108.837,160,100,160z"/>
	</g>
</g>
<g>
	<g>
		<path d="M468,0H292c-4.418,0-8,3.582-8,8v75.544c-11.92,7.018-22.487,16.113-31.2,26.856
			c-6.749-16.323-11.438-33.422-13.96-50.904l-2.92-20.632c-0.538-3.788-3.683-6.665-7.504-6.864
			c-3.845-0.271-7.315,2.299-8.176,6.056l-4.36,17.432c-6.745,27.252-10.591,55.14-11.472,83.2
			c-2.762-0.888-5.569-1.633-8.408-2.232V88c0-4.418-3.582-8-8-8H12c-4.418,0-8,3.582-8,8v112c0,4.418,3.582,8,8,8h176
			c4.418,0,8-3.582,8-8v-7.392c13.321,23.839,19.174,51.131,16.8,78.336L212.696,272H124c-4.418,0-8,3.582-8,8v48
			c0,4.418,3.582,8,8,8h9.224l22.888,137.312c0.641,3.858,3.977,6.686,7.888,6.688h160c3.911-0.002,7.247-2.83,7.888-6.688
			L354.776,336H364c4.418,0,8-3.582,8-8v-48c0-4.418-3.582-8-8-8h-88v-73.512c0.033-24.388,5.484-48.464,15.96-70.488H468
			c4.418,0,8-3.582,8-8V8C476,3.582,472.418,0,468,0z M20,96h14.632c-2.429,6.829-7.803,12.203-14.632,14.632V96z M20,192v-14.632
			c6.829,2.429,12.203,7.803,14.632,14.632H20z M180,192h-14.632c2.429-6.829,7.803-12.203,14.632-14.632V192z M180,160.8
			c-15.698,3.236-27.964,15.502-31.2,31.2H51.2c-3.236-15.698-15.502-27.964-31.2-31.2v-33.6c15.698-3.236,27.964-15.502,31.2-31.2
			h97.6c3.236,15.698,15.502,27.964,31.2,31.2V160.8z M180,110.632c-6.829-2.429-12.203-7.803-14.632-14.632H180V110.632z
			 M226.64,81.088c3.631,15.475,8.865,30.53,15.616,44.92c-4.826,8.357-8.589,17.285-11.2,26.576
			c-3.442-2.68-7.088-5.087-10.904-7.2C220.495,123.807,222.666,102.298,226.64,81.088z M317.224,464H170.776l-21.328-128h189.104
			L317.224,464z M356,288v32H132v-32H356z M284,108.648c-15.698,27.341-23.972,58.313-24,89.84V272h-31.2
			c3.268-38.837-8.471-77.449-32.8-107.896v-11.352c11.793,3.039,22.563,9.167,31.2,17.752l3.16,3.152
			c1.496,1.496,3.524,2.339,5.64,2.344c3.98,0.001,7.355-2.924,7.92-6.864c3.885-26.654,18.33-50.624,40.08-66.512V108.648z M300,16
			h14.632c-2.429,6.829-7.803,12.203-14.632,14.632V16z M300,112V97.368c6.829,2.429,12.203,7.803,14.632,14.632H300z M460,112
			h-14.632c2.429-6.829,7.803-12.203,14.632-14.632V112z M460,80.8c-15.698,3.236-27.964,15.502-31.2,31.2h-97.6
			c-3.236-15.698-15.502-27.964-31.2-31.2V47.2c15.698-3.236,27.964-15.502,31.2-31.2h97.6c3.236,15.698,15.502,27.964,31.2,31.2
			V80.8z M460,30.632c-6.829-2.429-12.203-7.803-14.632-14.632H460V30.632z"/>
	</g>
</g>
<g>
	<g>
		<path d="M380,32c-17.673,0-32,14.327-32,32s14.327,32,32,32c17.673,0,32-14.327,32-32S397.673,32,380,32z M380,80
			c-8.837,0-16-7.163-16-16s7.163-16,16-16s16,7.163,16,16S388.837,80,380,80z"/>
	</g>
</g>
<g>
</g>
<g>
</g>
<g>
</g>
<g>
</g>
<g>
</g>
<g>
</g>
<g>
</g>
<g>
</g>
<g>
</g>
<g>
</g>
<g>
</g>
<g>
</g>
<g>
</g>
<g>
</g>
<g>
</g>
</svg>
